# xmcd CD database file
#
# Track frame offsets:
#	150
#	16021
#	34132
#	51876
#	70149
#	86618
#	105212
#	121933
#	136265
#	150259
#	169694
#	186734
#	203613
#	222662
#	240340
#	257748
#	274857
#	293069
#	308039
#	324925
#
# Disc length: 4636 seconds
#
# Revision: 1
# Processed by: cddbd v1.5.2PL0 Copyright (c) Steve Scherf et al.
# Submitted via: CDex 1.51
#
DISCID=0e121a14
DTITLE=Various Artist - ZM-POPBOX-3-DISC-5
DYEAR=1900
DGENRE=Blues
TTITLE0=Lorde - Royals
TTITLE1=Magic - Rude
TTITLE2=A Great Big World and Christina Aguilera - Say Something
TTITLE3=Taylor Swift - Shake It Off
TTITLE4=5 Seconds Of Summer - She Looks So Perfect
TTITLE5=Ed Sheeran - Sing
TTITLE6=Lilly Allen - Somewhere Only We Know
TTITLE7=Ben E King - Stand By Me
TTITLE8=Sam Smith - Stay With Me
TTITLE9=One Direction - Story Of My Life
TTITLE10=Calvin Harris - Summer
TTITLE11=Grease - Summer Nights
TTITLE12=Stevie Wonder - Superstition
TTITLE13=Elvis Presley - Suspicious Minds
TTITLE14=Neil Diamond - Sweet Caroline
TTITLE15=Euryhmics The - Sweet Dreams( Are Made Of This)
TTITLE16=ABBA - Thank you For The Music
TTITLE17=Frank Sinatra - That's Life
TTITLE18=Ylvis - The Fox
TTITLE19=Grease - Grease Megamix
EXTD=
EXTT0=
EXTT1=
EXTT2=
EXTT3=
EXTT4=
EXTT5=
EXTT6=
EXTT7=
EXTT8=
EXTT9=
EXTT10=
EXTT11=
EXTT12=
EXTT13=
EXTT14=
EXTT15=
EXTT16=
EXTT17=
EXTT18=
EXTT19=
PLAYORDER=
